# xmcd
#
# Track frame offsets:
#	150
#	17610
#	47389
#	70359
#	93854
#	113361
#	133810
#	153270
#	178595
#	198928
#	223855
#	237746
#	265496
#	288265
#	304654
#
# Disc length: 4373 seconds
#
# Revision: 0
# Processed by: cddbd v1.4PL0 Copyright (c) Steve Scherf et al.
# Submitted via: audiograbber 1.82.01
#
DISCID=d011130f
DTITLE=Various Artist - Kontor - Sunset Chill Vol. 3  [CD 1)
DYEAR=2002
DGENRE=Ambient
TTITLE0=Microman and Vito Ingrosso - White Rain
TTITLE1=Blank and Jones  - Watching the waves (Ambient Mix)
TTITLE2=Sophie Ellis Bextor - Take me home (Comfy Sophie Remix)
TTITLE3=Nova June  - Ground
TTITLE4=Superpulse  - Devious Cha Cha
TTITLE5=CJ Stone  - The Sun (Goes Down)(Chillout Mix)
TTITLE6=Sono  - Alto Drive
TTITLE7=Gazzara - Spirit of Summer (Dave Warrin RMX)
TTITLE8=Lauren  - Crazy Times
TTITLE9=Valez - Crystal
TTITLE10=Jean Jacques Smoothie - 2 People
TTITLE11=Kienzle and Iberle - Touch me (Philiadelphia Rework)
TTITLE12=Be Noir  - Wake up with me
TTITLE13=Röyksopp - Eple
TTITLE14=Loose Ends - Hangin` on a string (Original Mix)
EXTD=
EXTT0=
EXTT1=
EXTT2=
EXTT3=
EXTT4=
EXTT5=
EXTT6=
EXTT7=
EXTT8=
EXTT9=
EXTT10=
EXTT11=
EXTT12=
EXTT13=
EXTT14=
PLAYORDER=
